<?xml version="1.0" encoding="utf-8"?>
<svg version="1.1" id="Слой_1" xmlns="http://www.w3.org/2000/svg" xmlns:xlink="http://www.w3.org/1999/xlink" x="0px" y="0px"
	 width="500px" height="454.6px" viewBox="0 0 500 454.6" style="enable-background:new 0 0 500 454.6;" xml:space="preserve">
<style type="text/css">
	.st0{fill:url(#SVGID_1_);}
	.st1{fill:url(#SVGID_00000159459366948452336360000011447173338609272983_);}
	.st2{fill:url(#SVGID_00000102536586842648297890000011880994048723553201_);}
	.st3{fill:url(#SVGID_00000139256031667648699190000000949124441113791656_);}
	.st4{fill:url(#SVGID_00000049182446032970794260000008045033208505225899_);}
	.st5{fill:url(#SVGID_00000130615543160137522510000003434168493526702237_);}
</style>
<g>
	
		<radialGradient id="SVGID_1_" cx="-769.9562" cy="735.5591" r="11.3643" gradientTransform="matrix(-10.9605 -13.3892 -12.5901 10.3064 1230.8384 -17702.3828)" gradientUnits="userSpaceOnUse">
		<stop  offset="9.557580e-02" style="stop-color:#0078D4"/>
		<stop  offset="0.7153" style="stop-color:#0C709B"/>
		<stop  offset="1" style="stop-color:#0A5079"/>
	</radialGradient>
	<path class="st0" d="M365.3,37.8C358.7,15.4,338.1,0,314.8,0h-15.4c-25.4,0-47.2,18.1-51.7,43.1l-26.3,143.3l6.5-22.3
		c6.6-22.4,27.1-37.9,50.5-37.9h89.3l37.4,14.6l36.1-14.6h-10.5c-23.3,0-43.9-15.4-50.5-37.8L365.3,37.8z"/>
	
		<radialGradient id="SVGID_00000009551166730049834120000006380588773246086793_" cx="-645.9481" cy="777.2991" r="11.3643" gradientTransform="matrix(11.1413 11.1828 10.9923 -10.9515 -1243.8942 16063.5918)" gradientUnits="userSpaceOnUse">
		<stop  offset="0" style="stop-color:#0091EB"/>
		<stop  offset="0.5235" style="stop-color:#2764E7"/>
		<stop  offset="0.9234" style="stop-color:#0636C3"/>
	</radialGradient>
	<path style="fill:url(#SVGID_00000009551166730049834120000006380588773246086793_);" d="M140.1,416.6c6.5,22.5,27.1,38,50.5,38
		h32.6c28.5,0,51.9-22.7,52.6-51.3l3.6-138.2l-7.4,25.4c-6.6,22.4-27.1,37.8-50.5,37.8h-90l-32.1-17.4l-34.7,17.4h10.4
		c23.4,0,44,15.5,50.5,38L140.1,416.6z"/>
	
		<linearGradient id="SVGID_00000165954605297733800730000003720701115808303281_" gradientUnits="userSpaceOnUse" x1="132.0699" y1="462.916" x2="190.9098" y2="116.5689" gradientTransform="matrix(1 0 0 -1 0 456.5729)">
		<stop  offset="0.2898" style="stop-color:#00A5D9"/>
		<stop  offset="0.6623" style="stop-color:#21CAB2"/>
		<stop  offset="0.95" style="stop-color:#6ADC90"/>
	</linearGradient>
	<path style="fill:url(#SVGID_00000165954605297733800730000003720701115808303281_);" d="M312.5,0H130.2
		C78.2,0,46.9,68.8,26.1,137.7c-24.7,81.5-57,190.6,36.5,190.6h78.7c23.5,0,44.2-15.6,50.6-38.2c13.7-47.9,37.7-131.4,56.5-195
		c9.6-32.3,17.5-60.1,29.8-77.3C285,8.1,296.4,0,312.5,0z"/>
	
		<linearGradient id="SVGID_00000050641039141144299690000012858194558953041829_" gradientUnits="userSpaceOnUse" x1="150.5166" y1="456.939" x2="164.716" y2="128.7119" gradientTransform="matrix(1 0 0 -1 0 456.5729)">
		<stop  offset="0" style="stop-color:#10C9EC"/>
		<stop  offset="0.1667" style="stop-color:#01AEE4;stop-opacity:0"/>
	</linearGradient>
	<path style="fill:url(#SVGID_00000050641039141144299690000012858194558953041829_);" d="M312.5,0H130.2
		C78.2,0,46.9,68.8,26.1,137.7c-24.7,81.5-57,190.6,36.5,190.6h78.7c23.5,0,44.2-15.6,50.6-38.2c13.7-47.9,37.7-131.4,56.5-195
		c9.6-32.3,17.5-60.1,29.8-77.3C285,8.1,296.4,0,312.5,0z"/>
	
		<radialGradient id="SVGID_00000052091138074598321020000003281206525633948802_" cx="-710.0801" cy="793.9844" r="11.3643" gradientTransform="matrix(-14.0187 35.6653 42.7797 16.8152 -43474.0312 12068.3398)" gradientUnits="userSpaceOnUse">
		<stop  offset="0.1544" style="stop-color:#2771D8"/>
		<stop  offset="0.6789" style="stop-color:#14B1FF"/>
		<stop  offset="0.9311" style="stop-color:#16BFDF"/>
	</radialGradient>
	<path style="fill:url(#SVGID_00000052091138074598321020000003281206525633948802_);" d="M187.5,454.6h182.3
		c52.1,0,83.3-68.8,104.2-137.7c24.7-81.6,57-190.6-36.5-190.6h-78.7c-23.5,0-44.2,15.6-50.6,38.2c-13.7,47.9-37.7,131.4-56.5,195
		c-9.6,32.3-17.5,60.1-29.8,77.3C215,446.5,203.5,454.6,187.5,454.6z"/>
	
		<linearGradient id="SVGID_00000117638320572374292690000009587184036009945488_" gradientUnits="userSpaceOnUse" x1="382.4898" y1="355.8411" x2="361.2373" y2="229.1982" gradientTransform="matrix(1 0 0 -1 0 456.5729)">
		<stop  offset="5.815350e-02" style="stop-color:#14B1FF"/>
		<stop  offset="0.7081" style="stop-color:#2976DB;stop-opacity:0"/>
	</linearGradient>
	<path style="fill:url(#SVGID_00000117638320572374292690000009587184036009945488_);" d="M187.5,454.6h182.3
		c52.1,0,83.3-68.8,104.2-137.7c24.7-81.6,57-190.6-36.5-190.6h-78.7c-23.5,0-44.2,15.6-50.6,38.2c-13.7,47.9-37.7,131.4-56.5,195
		c-9.6,32.3-17.5,60.1-29.8,77.3C215,446.5,203.5,454.6,187.5,454.6z"/>
</g>
</svg>
